<svg width="190" height="190" viewBox="0 0 190 190" fill="none" xmlns="http://www.w3.org/2000/svg">
<path d="M166.012 49.096L100.7 13.3597C98.9549 12.3954 96.9938 11.8896 95 11.8896C93.0062 11.8896 91.0451 12.3954 89.3 13.3597L23.9875 49.1108C22.1223 50.1314 20.5653 51.634 19.4791 53.4617C18.3929 55.2895 17.8173 57.3753 17.8125 59.5015V130.484C17.8173 132.61 18.3929 134.696 19.4791 136.524C20.5653 138.352 22.1223 139.854 23.9875 140.875L89.3 176.626C91.0451 177.59 93.0062 178.096 95 178.096C96.9938 178.096 98.9549 177.59 100.7 176.626L166.012 140.875C167.878 139.854 169.435 138.352 170.521 136.524C171.607 134.696 172.183 132.61 172.188 130.484V59.5089C172.187 57.379 171.613 55.2885 170.527 53.4565C169.44 51.6244 167.881 50.1184 166.012 49.096ZM95 23.7503L154.627 56.4065L132.532 68.5042L72.8977 35.8479L95 23.7503ZM95 89.0628L35.3727 56.4065L60.5328 42.6315L120.16 75.2878L95 89.0628ZM29.6875 66.7972L89.0625 99.2901V162.962L29.6875 130.492V66.7972ZM160.312 130.462L100.938 162.962V99.3198L124.688 86.3241V112.813C124.688 114.388 125.313 115.898 126.427 117.011C127.54 118.125 129.05 118.75 130.625 118.75C132.2 118.75 133.71 118.125 134.823 117.011C135.937 115.898 136.562 114.388 136.562 112.813V79.8226L160.312 66.7972V130.455V130.462Z" fill="#343330"/>
</svg>
